<svg xmlns="http://www.w3.org/2000/svg" viewBox="0 0 400 200" fill="none">
  <rect fill="url(#g2)" width="400" height="200" rx="8"/>
  <defs>
    <linearGradient id="g2" x1="0" y1="0" x2="400" y2="200">
      <stop offset="0%" stop-color="#1a1a2e"/>
      <stop offset="100%" stop-color="#16213e"/>
    </linearGradient>
  </defs>
  <!-- Nav bar -->
  <rect y="0" width="400" height="40" rx="8" fill="white" opacity="0.06"/>
  <rect x="20" y="10" width="50" height="20" rx="4" fill="white" opacity="0.1"/>
  <rect x="260" y="12" width="30" height="5" rx="2.5" fill="white" opacity="0.12"/>
  <rect x="300" y="12" width="30" height="5" rx="2.5" fill="white" opacity="0.12"/>
  <rect x="340" y="12" width="30" height="5" rx="2.5" fill="white" opacity="0.08"/>
  <!-- Mega menu dropdown -->
  <rect x="240" y="44" width="150" height="140" rx="4" fill="#1e1e32" stroke="#CFFE25" stroke-width="1" opacity="0.9"/>
  <!-- Dropdown content -->
  <rect x="254" y="58" width="40" height="6" rx="3" fill="#CFFE25" opacity="0.5"/>
  <rect x="254" y="72" width="60" height="4" rx="2" fill="white" opacity="0.1"/>
  <rect x="254" y="82" width="50" height="4" rx="2" fill="white" opacity="0.08"/>
  <rect x="254" y="92" width="55" height="4" rx="2" fill="white" opacity="0.08"/>
  <rect x="254" y="105" width="50" height="20" rx="3" fill="#CFFE25" opacity="0.1"/>
  <rect x="260" y="111" width="40" height="6" rx="3" fill="#CFFE25" opacity="0.3"/>
  <!-- Side grid hint -->
  <rect x="40" y="60" width="180" height="60" rx="3" fill="white" opacity="0.04"/>
  <rect x="52" y="72" width="80" height="4" rx="2" fill="white" opacity="0.08"/>
  <rect x="52" y="82" width="100" height="4" rx="2" fill="white" opacity="0.06"/>
  <rect x="52" y="92" width="60" height="4" rx="2" fill="white" opacity="0.06"/>
</svg>
