<svg xmlns="http://www.w3.org/2000/svg" viewBox="0 0 400 200" fill="none">
  <rect fill="url(#g3)" width="400" height="200" rx="8"/>
  <defs>
    <linearGradient id="g3" x1="0" y1="0" x2="400" y2="200">
      <stop offset="0%" stop-color="#1a1a2e"/>
      <stop offset="100%" stop-color="#0f0f23"/>
    </linearGradient>
  </defs>
  <!-- AI sparkles -->
  <circle cx="340" cy="30" r="2" fill="#CFFE25" opacity="0.5"/>
  <circle cx="360" cy="50" r="1.5" fill="#CFFE25" opacity="0.4"/>
  <circle cx="330" cy="60" r="1" fill="#CFFE25" opacity="0.3"/>
  <circle cx="370" cy="80" r="2" fill="#CFFE25" opacity="0.3"/>
  <!-- Chat panel -->
  <rect x="30" y="30" width="200" height="145" rx="6" fill="#1e1e32" stroke="white" stroke-width="0.5" opacity="0.8"/>
  <!-- Chat bubbles -->
  <rect x="44" y="44" width="120" height="24" rx="6" fill="white" opacity="0.06"/>
  <rect x="48" y="52" width="80" height="4" rx="2" fill="white" opacity="0.12"/>
  <rect x="48" y="60" width="60" height="4" rx="2" fill="white" opacity="0.08"/>
  <rect x="90" y="78" width="130" height="30" rx="6" fill="#CFFE25" opacity="0.08"/>
  <rect x="96" y="86" width="60" height="4" rx="2" fill="#CFFE25" opacity="0.2"/>
  <rect x="96" y="94" width="80" height="4" rx="2" fill="#CFFE25" opacity="0.12"/>
  <!-- Preview panel -->
  <rect x="250" y="30" width="130" height="145" rx="6" fill="#0f0f23" stroke="white" stroke-width="0.5" opacity="0.6"/>
  <rect x="264" y="44" width="60" height="6" rx="3" fill="#CFFE25" opacity="0.3"/>
  <rect x="264" y="60" width="100" height="30" rx="3" fill="white" opacity="0.04"/>
  <rect x="264" y="100" width="100" height="25" rx="3" fill="white" opacity="0.03"/>
  <rect x="264" y="135" width="100" height="25" rx="3" fill="white" opacity="0.03"/>
  <!-- Connecting arrow -->
  <path d="M230 100L250 100" stroke="#CFFE25" stroke-width="1" stroke-dasharray="3 3" opacity="0.4"/>
</svg>
